<?xml version="1.0" encoding="UTF-8" standalone="no"?>
<!-- Created with Inkscape (http://www.inkscape.org/) -->

<svg
   version="1.1"
   id="svg1"
   width="353.33334"
   height="262.66666"
   viewBox="0 0 353.33334 262.66666"
   sodipodi:docname="calc1_log4.pdf"
   xmlns:inkscape="http://www.inkscape.org/namespaces/inkscape"
   xmlns:sodipodi="http://sodipodi.sourceforge.net/DTD/sodipodi-0.dtd"
   xmlns="http://www.w3.org/2000/svg"
   xmlns:svg="http://www.w3.org/2000/svg">
  <defs
     id="defs1">
    <clipPath
       clipPathUnits="userSpaceOnUse"
       id="clipPath1">
      <path
         d="M -2.5000001e-6,-2.5e-5 H 23840.001 V 33700.001 H -2.5000001e-6 Z"
         id="path1" />
    </clipPath>
    <clipPath
       clipPathUnits="userSpaceOnUse"
       id="clipPath2">
      <path
         d="M -126.86,190.95 H 2257.1401 V -3179.0501 H -126.86 Z"
         id="path2" />
    </clipPath>
    <clipPath
       clipPathUnits="userSpaceOnUse"
       id="clipPath3">
      <path
         d="m -197.6,117 2384.0001,3e-5 V -3253.0001 H -197.59997 Z"
         id="path3" />
    </clipPath>
    <clipPath
       clipPathUnits="userSpaceOnUse"
       id="clipPath4">
      <path
         d="m -59.050002,30.300003 2384.000102,2.4e-5 V -3339.7001 H -59.049968 Z"
         id="path4" />
    </clipPath>
    <clipPath
       clipPathUnits="userSpaceOnUse"
       id="clipPath5">
      <path
         d="M -80.530102,34.549998 2303.47,34.550021 V -3335.4501 H -80.530068 Z"
         id="path5" />
    </clipPath>
    <clipPath
       clipPathUnits="userSpaceOnUse"
       id="clipPath6">
      <path
         d="m -89.650004,129.75 2384.000104,3e-5 V -3240.2501 H -89.64997 Z"
         id="path6" />
    </clipPath>
    <clipPath
       clipPathUnits="userSpaceOnUse"
       id="clipPath7">
      <path
         d="M -2.5000001e-6,-2.5e-5 H 23840.001 V 33700.001 H -2.5000001e-6 Z"
         id="path7" />
    </clipPath>
    <clipPath
       clipPathUnits="userSpaceOnUse"
       id="clipPath8">
      <path
         d="M 652.00001,-2.5e-5 V 1848 H 3107.0001 V -2.5e-5 Z"
         id="path8" />
    </clipPath>
    <clipPath
       clipPathUnits="userSpaceOnUse"
       id="clipPath9">
      <path
         d="M -77.333333,261.33333 H 3101.3333 V -4232 H -77.333333 Z"
         id="path9" />
    </clipPath>
    <clipPath
       clipPathUnits="userSpaceOnUse"
       id="clipPath10">
      <path
         d="M -6.6666667,268 H 360 V -6.6666667 H -6.6666667 Z"
         id="path10" />
    </clipPath>
  </defs>
  <sodipodi:namedview
     id="namedview1"
     pagecolor="#ffffff"
     bordercolor="#000000"
     borderopacity="0.25"
     inkscape:showpageshadow="2"
     inkscape:pageopacity="0.0"
     inkscape:pagecheckerboard="0"
     inkscape:deskcolor="#d1d1d1">
    <inkscape:page
       x="0"
       y="0"
       inkscape:label="1"
       id="page1"
       width="353.33334"
       height="262.66666"
       margin="0"
       bleed="0" />
  </sodipodi:namedview>
  <g
     id="g1"
     inkscape:groupmode="layer"
     inkscape:label="1">
    <g
       id="g46">
      <g
         clip-path="url(#clipPath10)"
         id="g45">
        <path
           d="m 1352.95,1850 v 102 m 0,-40 h -10 l 10,40 10,-40 h -10 v 40 M 3098,181.449 h 102 m -40,0 v 10 l 40,-10 -40,-10 v 10 h 40"
           style="fill:#000000;fill-opacity:1;fill-rule:nonzero;stroke:none"
           transform="matrix(0.13333333,0,0,-0.13333333,-77.333333,261.33333)"
           id="path11" />
        <path
           d="m 1352.95,592 h -17 M 2554,181.449 v -17 m -770.95,17 v -17 M 1352.95,1314.5 h -17"
           style="fill:none;stroke:#000000;stroke-width:3;stroke-linecap:butt;stroke-linejoin:miter;stroke-miterlimit:10;stroke-dasharray:none;stroke-opacity:1"
           transform="matrix(0.13333333,0,0,-0.13333333,-77.333333,261.33333)"
           id="path12" />
        <path
           d="m 2570,592 c 0,8.836 -7.16,16 -16,16 -8.84,0 -16,-7.164 -16,-16 0,-8.836 7.16,-16 16,-16 8.84,0 16,7.164 16,16"
           style="fill:#000000;fill-opacity:1;fill-rule:nonzero;stroke:none"
           transform="matrix(0.13333333,0,0,-0.13333333,-77.333333,261.33333)"
           id="path13" />
        <path
           d="m 1799.05,1314.5 c 0,8.84 -7.16,16 -16,16 -8.84,0 -16,-7.16 -16,-16 0,-8.84 7.16,-16 16,-16 8.84,0 16,7.16 16,16"
           style="fill:#000000;fill-opacity:1;fill-rule:nonzero;stroke:none"
           transform="matrix(0.13333333,0,0,-0.13333333,-77.333333,261.33333)"
           id="path14" />
        <path
           d="m 2477.5,541 h 153 v 102 h -153 z m -745.45,697 h 102 v 153 h -102 z"
           style="fill:none;stroke:#000000;stroke-width:3;stroke-linecap:butt;stroke-linejoin:miter;stroke-miterlimit:10;stroke-dasharray:none;stroke-opacity:1"
           transform="matrix(0.13333333,0,0,-0.13333333,-77.333333,261.33333)"
           id="path15" />
        <path
           d="m 2256.5,-28.5 221,671.5 m 391,-671.5 -238,671.5"
           style="fill:none;stroke:#000000;stroke-width:3;stroke-linecap:butt;stroke-linejoin:miter;stroke-miterlimit:10;stroke-dasharray:8.5, 17;stroke-dashoffset:0;stroke-opacity:1"
           transform="matrix(0.13333333,0,0,-0.13333333,-77.333333,261.33333)"
           clip-path="url(#clipPath1)"
           id="path16" />
        <path
           d="m 616,1034 h 408 v 612 H 616 Z"
           style="fill:none;stroke:#000000;stroke-width:3;stroke-linecap:butt;stroke-linejoin:miter;stroke-miterlimit:10;stroke-dasharray:none;stroke-opacity:1"
           transform="matrix(0.13333333,0,0,-0.13333333,-77.333333,261.33333)"
           id="path17" />
        <path
           d="m 836,1340 c 0,8.84 -7.164,16 -16,16 -8.836,0 -16,-7.16 -16,-16 0,-8.84 7.164,-16 16,-16 8.836,0 16,7.16 16,16"
           style="fill:#000000;fill-opacity:1;fill-rule:nonzero;stroke:none"
           transform="matrix(0.13333333,0,0,-0.13333333,-77.333333,261.33333)"
           id="path18" />
        <path
           d="m 735,1034 170,612"
           style="fill:none;stroke:#000000;stroke-width:9;stroke-linecap:butt;stroke-linejoin:miter;stroke-miterlimit:10;stroke-dasharray:none;stroke-opacity:1"
           transform="matrix(0.13333333,0,0,-0.13333333,-77.333333,261.33333)"
           id="path19" />
        <path
           d="m 777.5,1187 h 102 v 357"
           style="fill:none;stroke:#000000;stroke-width:3;stroke-linecap:butt;stroke-linejoin:miter;stroke-miterlimit:10;stroke-dasharray:none;stroke-opacity:1"
           transform="matrix(0.13333333,0,0,-0.13333333,-77.333333,261.33333)"
           id="path20" />
        <path
           d="m 1024,1646 810.05,-255 M 1024,1034 l 810.05,204"
           style="fill:none;stroke:#000000;stroke-width:3;stroke-linecap:butt;stroke-linejoin:miter;stroke-miterlimit:10;stroke-dasharray:8.5, 17;stroke-dashoffset:0;stroke-opacity:1"
           transform="matrix(0.13333333,0,0,-0.13333333,-77.333333,261.33333)"
           id="path21" />
        <text
           xml:space="preserve"
           transform="matrix(1.3333333,0,0,1.3333333,91.813333,6.7333333)"
           clip-path="url(#clipPath2)"
           id="text29"><tspan
             style="font-style:italic;font-variant:normal;font-weight:normal;font-size:10px;font-family:Times;writing-mode:lr-tb;fill:#000000;fill-opacity:1;fill-rule:nonzero;stroke:none"
             x="0"
             y="0"
             id="tspan21">y</tspan><tspan
             style="font-style:italic;font-variant:normal;font-weight:normal;font-size:10px;font-family:Times;writing-mode:lr-tb;fill:#000000;fill-opacity:1;fill-rule:nonzero;stroke:none"
             x="190.92"
             y="181.7"
             id="tspan22">x</tspan><tspan
             style="font-style:italic;font-variant:normal;font-weight:normal;font-size:10px;font-family:Times;writing-mode:lr-tb;fill:#000000;fill-opacity:1;fill-rule:nonzero;stroke:none"
             x="-0.56"
             y="61.200001"
             id="tspan23">b</tspan><tspan
             style="font-style:italic;font-variant:normal;font-weight:normal;font-size:10px;font-family:Times;writing-mode:lr-tb;fill:#000000;fill-opacity:1;fill-rule:nonzero;stroke:none"
             x="-0.56"
             y="133.45"
             id="tspan24">a</tspan><tspan
             style="font-style:italic;font-variant:normal;font-weight:normal;font-size:10px;font-family:Times;writing-mode:lr-tb;fill:#000000;fill-opacity:1;fill-rule:nonzero;stroke:none"
             x="48.945099"
             y="181.7"
             id="tspan25">a</tspan><tspan
             style="font-style:italic;font-variant:normal;font-weight:normal;font-size:10px;font-family:Times;writing-mode:lr-tb;fill:#000000;fill-opacity:1;fill-rule:nonzero;stroke:none"
             x="126.04"
             y="182.55"
             id="tspan26">b</tspan><tspan
             style="font-variant:normal;font-weight:normal;font-size:10px;font-family:Symbol;writing-mode:lr-tb;fill:#000000;fill-opacity:1;fill-rule:nonzero;stroke:none"
             x="108.99"
             y="110.5"
             id="tspan27">(</tspan><tspan
             style="font-style:italic;font-variant:normal;font-weight:normal;font-size:10px;font-family:Times;writing-mode:lr-tb;fill:#000000;fill-opacity:1;fill-rule:nonzero;stroke:none"
             x="112.32008"
             y="110.5"
             id="tspan28">b, a</tspan><tspan
             style="font-variant:normal;font-weight:normal;font-size:10px;font-family:Symbol;writing-mode:lr-tb;fill:#000000;fill-opacity:1;fill-rule:nonzero;stroke:none"
             x="127.32008"
             y="110.5"
             id="tspan29">)</tspan></text>
        <path
           d="m 2477.5,779 68,-161.5 m -15.52,36.867 9.22,3.879 6.3,-40.746 -24.74,32.984 9.22,3.883 15.52,-36.867"
           style="fill:#000000;fill-opacity:1;fill-rule:nonzero;stroke:none"
           transform="matrix(0.13333333,0,0,-0.13333333,-77.333333,261.33333)"
           id="path29" />
        <text
           xml:space="preserve"
           transform="matrix(1.3333333,-1.3333333e-8,1.3333333e-8,1.3333333,186.13333,105.33333)"
           clip-path="url(#clipPath3)"
           id="text32"><tspan
             style="font-variant:normal;font-weight:normal;font-size:10px;font-family:Symbol;writing-mode:lr-tb;fill:#000000;fill-opacity:1;fill-rule:nonzero;stroke:none"
             x="0"
             y="0"
             id="tspan30">(</tspan><tspan
             style="font-style:italic;font-variant:normal;font-weight:normal;font-size:10px;font-family:Times;writing-mode:lr-tb;fill:#000000;fill-opacity:1;fill-rule:nonzero;stroke:none"
             x="3.33008"
             y="0"
             id="tspan31">a, b</tspan><tspan
             style="font-variant:normal;font-weight:normal;font-size:10px;font-family:Symbol;writing-mode:lr-tb;fill:#000000;fill-opacity:1;fill-rule:nonzero;stroke:none"
             x="18.33008"
             y="0"
             id="tspan32">)</tspan></text>
        <path
           d="m 1959,1221 -144.5,76.5 m 35.35,-18.71 -4.68,-8.84 -30.67,27.55 40.03,-9.88 -4.68,-8.83 -35.35,18.71"
           style="fill:#000000;fill-opacity:1;fill-rule:nonzero;stroke:none"
           transform="matrix(0.13333333,0,0,-0.13333333,-77.333333,261.33333)"
           id="path32" />
        <text
           xml:space="preserve"
           transform="matrix(1.3333333,-1.3333333e-8,1.3333333e-8,1.3333333,1.4,220.93333)"
           clip-path="url(#clipPath4)"
           id="text33"><tspan
             style="font-style:italic;font-variant:normal;font-weight:normal;font-size:10px;font-family:Times;writing-mode:lr-tb;fill:#000000;fill-opacity:1;fill-rule:nonzero;stroke:none"
             x="0"
             y="0"
             id="tspan33">y = e</tspan></text>
        <text
           xml:space="preserve"
           transform="matrix(1.3333333,-1.3333333e-8,1.3333333e-8,1.3333333,30.040133,215.26667)"
           clip-path="url(#clipPath5)"
           id="text34"><tspan
             style="font-style:italic;font-variant:normal;font-weight:normal;font-size:8px;font-family:Times;writing-mode:lr-tb;fill:#000000;fill-opacity:1;fill-rule:nonzero;stroke:none"
             x="0"
             y="0"
             id="tspan34">x</tspan></text>
        <text
           xml:space="preserve"
           transform="matrix(1.3333333,-1.3333333e-8,1.3333333e-8,1.3333333,42.2,88.333333)"
           clip-path="url(#clipPath6)"
           id="text38"><tspan
             style="font-variant:normal;font-weight:normal;font-size:10px;font-family:Symbol;writing-mode:lr-tb;fill:#000000;fill-opacity:1;fill-rule:nonzero;stroke:none"
             x="0"
             y="0"
             id="tspan35">∆</tspan><tspan
             style="font-style:italic;font-variant:normal;font-weight:normal;font-size:10px;font-family:Times;writing-mode:lr-tb;fill:#000000;fill-opacity:1;fill-rule:nonzero;stroke:none"
             x="6.1199198"
             y="0"
             id="tspan36">y</tspan><tspan
             style="font-variant:normal;font-weight:normal;font-size:10px;font-family:Symbol;writing-mode:lr-tb;fill:#000000;fill-opacity:1;fill-rule:nonzero;stroke:none"
             x="-12.06988"
             y="19.549999"
             id="tspan37">∆</tspan><tspan
             style="font-style:italic;font-variant:normal;font-weight:normal;font-size:10px;font-family:Times;writing-mode:lr-tb;fill:#000000;fill-opacity:1;fill-rule:nonzero;stroke:none"
             x="-5.0999599"
             y="19.549999"
             id="tspan38">x</tspan></text>
        <path
           d="M 652.453,182.176 H 3106.69"
           style="fill:none;stroke:#000000;stroke-width:2.45423;stroke-linecap:round;stroke-linejoin:round;stroke-miterlimit:10;stroke-dasharray:none;stroke-opacity:1"
           transform="matrix(0.13333333,0,0,-0.13333333,-77.333333,261.33333)"
           id="path38" />
        <path
           d="M 1353.65,-483.977 V 1847.55"
           style="fill:none;stroke:#000000;stroke-width:2.45423;stroke-linecap:round;stroke-linejoin:round;stroke-miterlimit:10;stroke-dasharray:none;stroke-opacity:1"
           transform="matrix(0.13333333,0,0,-0.13333333,-77.333333,261.33333)"
           clip-path="url(#clipPath7)"
           id="path39" />
        <g
           clip-path="url(#clipPath9)"
           id="g44">
          <path
             d="m 652.453,227.262 58.438,8.172 58.433,9.644 58.438,11.414 58.433,13.473 58.434,15.93 58.441,18.824 58.43,22.211 58.44,26.258 58.43,30.996 58.44,36.644 58.41,43.293 58.43,51.121 58.44,60.422 58.43,71.344 58.44,84.305 58.43,99.593 58.44,117.657 58.44,139.007 58.43,164.19 58.44,193.98 58.43,229.17"
             style="fill:none;stroke:#000000;stroke-width:8.662;stroke-linecap:round;stroke-linejoin:round;stroke-miterlimit:10;stroke-dasharray:none;stroke-opacity:1"
             transform="matrix(0.13333333,0,0,-0.13333333,-77.333333,261.33333)"
             clip-path="url(#clipPath8)"
             id="path40" />
          <path
             d="m 1916.82,1847.55 -37.25,-172.64"
             style="fill:none;stroke:#000000;stroke-width:8.662;stroke-linecap:round;stroke-linejoin:round;stroke-miterlimit:10;stroke-dasharray:none;stroke-opacity:1"
             transform="matrix(0.13333333,0,0,-0.13333333,-77.333333,261.33333)"
             clip-path="url(#clipPath8)"
             id="path41" />
          <path
             d="m 1401.12,-483.977 8.59,55.516 10.18,55.516 12,55.515 14.19,55.516 16.76,55.512 19.81,55.492 23.39,55.5155 27.63,55.5117 32.64,55.5156 38.58,55.5156 45.56,55.5156 53.82,55.512 63.59,55.515 75.12,55.516 88.74,55.516 104.82,55.488 123.87,55.516 146.3,55.515 172.85,55.516 204.19,55.512 241.23,55.515"
             style="fill:none;stroke:#000000;stroke-width:8.662;stroke-linecap:round;stroke-linejoin:round;stroke-miterlimit:10;stroke-dasharray:none;stroke-opacity:1"
             transform="matrix(0.13333333,0,0,-0.13333333,-77.333333,261.33333)"
             clip-path="url(#clipPath8)"
             id="path42" />
          <path
             d="M 3106.69,717.176 2924.98,681.785"
             style="fill:none;stroke:#000000;stroke-width:8.662;stroke-linecap:round;stroke-linejoin:round;stroke-miterlimit:10;stroke-dasharray:none;stroke-opacity:1"
             transform="matrix(0.13333333,0,0,-0.13333333,-77.333333,261.33333)"
             clip-path="url(#clipPath8)"
             id="path43" />
          <path
             d="m 652.453,-483.977 87.641,83.274 87.668,83.273 87.64,83.27 87.668,83.25 87.64,83.2694 87.66,83.2734 87.64,83.2735 87.64,83.2697 87.67,83.273 87.64,83.274 87.67,83.246 87.64,83.273 87.66,83.27 87.64,83.273 87.64,83.274 87.67,83.269 87.64,83.274 87.66,83.248 87.64,83.27 87.67,83.27 87.64,83.27 87.64,83.28 87.66,83.27 87.64,83.27"
             style="fill:none;stroke:#000000;stroke-width:7.21833;stroke-linecap:round;stroke-linejoin:round;stroke-miterlimit:10;stroke-dasharray:49.0846, 24.5423, 24.5423, 24.5423;stroke-dashoffset:0;stroke-opacity:1"
             transform="matrix(0.13333333,0,0,-0.13333333,-77.333333,261.33333)"
             clip-path="url(#clipPath8)"
             id="path44" />
        </g>
      </g>
    </g>
  </g>
</svg>
