<?xml version="1.0" encoding="UTF-8" standalone="no"?>
<!-- Created with Inkscape (http://www.inkscape.org/) -->

<svg
   version="1.1"
   id="svg1"
   width="184"
   height="162.66667"
   viewBox="0 0 184 162.66667"
   sodipodi:docname="calc1_spring9.pdf"
   xmlns:inkscape="http://www.inkscape.org/namespaces/inkscape"
   xmlns:sodipodi="http://sodipodi.sourceforge.net/DTD/sodipodi-0.dtd"
   xmlns="http://www.w3.org/2000/svg"
   xmlns:svg="http://www.w3.org/2000/svg">
  <defs
     id="defs1">
    <clipPath
       clipPathUnits="userSpaceOnUse"
       id="clipPath1">
      <path
         d="M -305.02901,65.000002 H 2078.9711 V -3305.0001 H -305.02901 Z"
         id="path1" />
    </clipPath>
    <clipPath
       clipPathUnits="userSpaceOnUse"
       id="clipPath2">
      <path
         d="M -6.6666667,169.33333 H 190.66667 V -6.6666667 H -6.6666667 Z"
         id="path2" />
    </clipPath>
    <clipPath
       clipPathUnits="userSpaceOnUse"
       id="clipPath3">
      <path
         d="M 0,162.66667 H 184 V 0 H 0 Z"
         id="path3" />
    </clipPath>
  </defs>
  <sodipodi:namedview
     id="namedview1"
     pagecolor="#ffffff"
     bordercolor="#000000"
     borderopacity="0.25"
     inkscape:showpageshadow="2"
     inkscape:pageopacity="0.0"
     inkscape:pagecheckerboard="0"
     inkscape:deskcolor="#d1d1d1">
    <inkscape:page
       x="0"
       y="0"
       inkscape:label="1"
       id="page1"
       width="184"
       height="162.66667"
       margin="0"
       bleed="0" />
  </sodipodi:namedview>
  <g
     id="g1"
     inkscape:groupmode="layer"
     inkscape:label="1">
    <g
       id="g20">
      <g
         clip-path="url(#clipPath3)"
         id="g19">
        <g
           clip-path="url(#clipPath2)"
           id="g18">
          <path
             d="m 3094.25,760 v 35.051 l -6,0.957 -5.98,1.16 -5.9,1.355 -5.77,1.551 -5.57,1.739 -5.32,1.921 -5.02,2.098 -4.67,2.254 -4.26,2.406 -3.83,2.539 -3.34,2.66 -2.84,2.762 -2.29,2.848 -1.72,2.914 -1.14,2.961 -0.55,2.992 0.05,3 0.65,2.988 1.24,2.953 1.82,2.907 2.39,2.836 2.91,2.746 3.43,2.64 3.91,2.516 4.33,2.383 4.73,2.23 5.08,2.063 5.36,1.894 5.61,1.707 5.79,1.52 5.92,1.324 5.99,1.125 5.99,0.922 5.94,0.726 5.83,0.532 5.66,0.336 5.43,0.152 5.15,-0.023 4.82,-0.188 4.44,-0.348 4.02,-0.484 3.54,-0.609 3.05,-0.723 2.52,-0.816 1.96,-0.887 1.39,-0.945 0.79,-0.985 0.2,-0.996 -0.4,-0.996 -1,-0.969 -1.57,-0.929 -2.16,-0.868 -2.7,-0.785 -3.21,-0.687 -3.72,-0.571 -4.16,-0.437 -4.57,-0.297 -4.93,-0.133 -5.26,0.035 -5.51,0.211 -5.73,0.403 -5.87,0.597 -5.96,0.789 -6,0.993 -5.97,1.191 -5.88,1.391 -5.74,1.582 -5.53,1.773 -5.28,1.949 -4.96,2.125 -4.6,2.282 -4.2,2.429 -3.74,2.559 -3.27,2.679 -2.74,2.778 -2.19,2.859 -1.63,2.926 -1.05,2.969 -0.44,2.992 0.15,3 0.75,2.984 1.34,2.946 1.92,2.894 2.47,2.824 3.01,2.727 3.51,2.621 3.97,2.496 4.41,2.359 4.79,2.204 5.13,2.035 5.41,1.863 5.64,1.676 5.82,1.484 5.93,1.293 6,1.09 5.98,0.891 5.93,0.691 5.8,0.5 5.63,0.305 5.39,0.121 5.1,-0.051 4.76,-0.219 4.37,-0.367 3.93,-0.508 3.47,-0.633 2.96,-0.738 2.43,-0.828 1.86,-0.898 1.29,-0.953 0.7,-0.985 0.09,-1 -0.5,-0.992 -1.09,-0.965 -1.68,-0.922 -2.24,-0.851 -2.79,-0.77 -3.31,-0.668 -3.79,-0.551 -4.23,-0.418 -4.63,-0.265 -5,-0.11 -5.3,0.067 -5.55,0.242 -5.76,0.434 -5.89,0.629 -5.97,0.828 -6,1.023 -5.96,1.227 -5.86,1.422 -5.71,1.613 -5.49,1.804 -5.23,1.981 -4.9,2.148 -4.54,2.309 -4.12,2.453 -3.67,2.582 -3.18,2.695 -2.65,2.793 -2.1,2.872 -1.53,2.933 -0.94,2.977 -0.35,2.992 0.25,3 0.85,2.976 1.44,2.942 2.01,2.883 2.57,2.808 3.09,2.711 3.59,2.602 4.06,2.476 4.47,2.328 4.85,2.176 5.18,2.012 5.46,1.828 5.67,1.645 5.85,1.457 5.94,1.254 6,1.058 5.98,0.856 5.91,0.66 5.78,0.465 5.59,0.273 5.34,0.094 5.05,-0.082 4.69,-0.242 4.3,-0.395 3.86,-0.527 3.39,-0.653 2.87,-0.754 2.33,-0.843 1.77,-0.91 1.19,-0.958 0.6,-0.992 -0.01,-0.996 -0.6,-0.992 -1.19,-0.957 -1.78,-0.91 -2.33,-0.84 -2.88,-0.754 -3.39,-0.648 -3.87,-0.532 -4.3,-0.39 -4.7,-0.242 -5.05,-0.079 -5.35,0.094 -5.59,0.278 -5.78,0.464 -5.91,0.661 -5.98,0.859 -6,1.059 -5.94,1.261 -5.84,1.453 -5.68,1.649 -5.45,1.832 -5.18,2.012 -4.84,2.175 -4.47,2.332 -4.05,2.473 -3.59,2.61 -3.09,2.71 -2.56,2.81 -2.01,2.88 -1.43,2.94 -0.84,2.98 -0.25,3 0.36,3 0.94,2.97 1.54,2.93 2.11,2.87 2.66,2.8 3.18,2.69 3.67,2.58 4.12,2.45 4.55,2.31 4.91,2.15 5.22,1.98 5.5,1.8 5.7,1.61 5.87,1.42 5.96,1.22 6,1.02 5.97,0.83 5.89,0.63 5.75,0.43 5.55,0.24 5.3,0.07 4.99,-0.11 4.64,-0.27 4.23,-0.42 3.78,-0.55 3.3,-0.67 2.78,-0.77 2.24,-0.86 1.67,-0.92 1.09,-0.97 0.5,-0.99 -0.11,-0.99 -0.7,-0.99 -1.29,-0.95 -1.87,-0.9 -2.43,-0.83 -2.97,-0.74 -3.47,-0.63 -3.94,-0.5 -4.38,-0.37 -4.76,-0.22 -5.1,-0.05 -5.4,0.13 -5.62,0.3 -5.8,0.5 -5.93,0.7 -5.99,0.89 -6,1.09 -5.93,1.3 -5.82,1.49 -5.64,1.67 -5.4,1.87 -5.13,2.04 -4.79,2.2 -4.4,2.36 -3.97,2.5 -3.5,2.62 -3.01,2.73 -2.47,2.82 -1.91,2.9 -1.33,2.95 -0.75,2.98 -0.14,3 0.45,2.99 1.05,2.97 1.64,2.92 2.2,2.86 2.75,2.78 3.26,2.67 3.75,2.56 4.2,2.43 4.61,2.28 4.96,2.12 5.28,1.95 5.54,1.77 5.74,1.58 5.88,1.39 5.97,1.19 6,0.99 5.96,0.79 5.87,0.6 5.73,0.39 5.51,0.21 5.25,0.04 4.93,-0.14 4.57,-0.29 4.15,-0.44 3.71,-0.58 3.22,-0.68 2.69,-0.79 2.14,-0.87 1.58,-0.92 0.99,-0.98 0.39,-0.99 -0.2,-1 -0.81,-0.98 -1.39,-0.95 -1.96,-0.89 -2.53,-0.81 -3.05,-0.72 -3.55,-0.61 -4.02,-0.48 -4.44,-0.35 -4.83,-0.19 -5.15,-0.02 -5.43,0.16 -5.67,0.34 -5.83,0.53 -5.94,0.72 -5.99,0.93 -5.99,1.13 -5.91,1.32 -5.8,1.53 -5.6,1.7 -5.36,1.9 -5.08,2.06 -4.72,2.24 -4.34,2.38 -3.89,2.52 -3.43,2.64 -2.91,2.75 -2.38,2.83 -1.81,2.91 -1.24,2.95 -0.64,2.99 -0.05,3 0.56,2.99 1.15,2.96 1.72,2.92 2.3,2.85 2.84,2.76 3.34,2.65 3.84,2.54 4.27,2.41 4.66,2.25 5.03,2.09 5.32,1.93 5.58,1.73 5.76,1.55 5.9,1.36 5.98,1.15 6,0.96 5.95,0.76 5.86,0.56 5.68,0.36 5.48,0.19 h 5.19 l 4.88,-0.16 4.5,-0.32 4.09,-0.47 3.62,-0.59 3.13,-0.71 2.61,-0.8 2.05,-0.88 1.48,-0.93 0.89,-0.98 0.29,-1 -0.3,-1 -0.91,-0.97 -1.49,-0.94 -2.06,-0.87 -2.61,-0.81 -3.14,-0.7 -3.63,-0.59 -4.1,-0.46 -4.51,-0.32 -4.88,-0.16 -5.2,0.01 -5.48,0.18 -5.69,0.37 -5.86,0.57 -5.95,0.76 V 1250"
             style="fill:none;stroke:#000000;stroke-width:3;stroke-linecap:butt;stroke-linejoin:miter;stroke-miterlimit:10;stroke-dasharray:none;stroke-opacity:1"
             transform="matrix(0.13333333,0,0,-0.13333333,-352,174.66667)"
             id="path4" />
          <path
             d="m 2650,1250 h 900 m -900,0 50,50 m 0,-50 50,50 m 0,-50 50,50 m 0,-50 50,50 m 0,-50 50,50 m 0,-50 50,50 m 0,-50 50,50 m 0,-50 50,50 m 0,-50 50,50 m 0,-50 50,50 m 0,-50 50,50 m 0,-50 50,50 m 0,-50 50,50 m 0,-50 50,50 m 0,-50 50,50 m 0,-50 50,50 m 0,-50 50,50 m 0,-50 50,50"
             style="fill:none;stroke:#000000;stroke-width:3;stroke-linecap:butt;stroke-linejoin:miter;stroke-miterlimit:10;stroke-dasharray:none;stroke-opacity:1"
             transform="matrix(0.13333333,0,0,-0.13333333,-352,174.66667)"
             id="path5" />
          <path
             d="m 2950,600 h 270 v 160 h -270 z"
             style="fill:none;stroke:#000000;stroke-width:3;stroke-linecap:butt;stroke-linejoin:miter;stroke-miterlimit:10;stroke-dasharray:none;stroke-opacity:1"
             transform="matrix(0.13333333,0,0,-0.13333333,-352,174.66667)"
             id="path6" />
          <path
             d="m 3220,680 h 200 m -20,0 v 10 l 40,-10 -40,-10 v 10"
             style="fill:#000000;fill-opacity:1;fill-rule:nonzero;stroke:none"
             transform="matrix(0.13333333,0,0,-0.13333333,-352,174.66667)"
             id="path7" />
          <path
             d="m 2950,560 h 270 V 400 h -270 z m 270,-80 h 200"
             style="fill:none;stroke:#000000;stroke-width:3;stroke-linecap:butt;stroke-linejoin:miter;stroke-miterlimit:10;stroke-dasharray:10, 20;stroke-dashoffset:0;stroke-opacity:1"
             transform="matrix(0.13333333,0,0,-0.13333333,-352,174.66667)"
             id="path8" />
          <path
             d="m 3400,480 v 10 l 40,-10 -40,-10 v 10"
             style="fill:none;stroke:#000000;stroke-width:3;stroke-linecap:butt;stroke-linejoin:miter;stroke-miterlimit:10;stroke-dasharray:none;stroke-opacity:1"
             transform="matrix(0.13333333,0,0,-0.13333333,-352,174.66667)"
             id="path9" />
          <path
             d="m 3500,100 v 1000 m 0,-20 h -10 l 10,40 10,-40 h -10"
             style="fill:#000000;fill-opacity:1;fill-rule:nonzero;stroke:none"
             transform="matrix(0.13333333,0,0,-0.13333333,-352,174.66667)"
             id="path10" />
          <path
             d="m 3480,480 h 40 m -20,200 h 20"
             style="fill:none;stroke:#000000;stroke-width:3;stroke-linecap:butt;stroke-linejoin:miter;stroke-miterlimit:10;stroke-dasharray:none;stroke-opacity:1"
             transform="matrix(0.13333333,0,0,-0.13333333,-352,174.66667)"
             id="path11" />
          <text
             xml:space="preserve"
             transform="matrix(1.3333333,0,0,1.3333333,54.705333,88)"
             clip-path="url(#clipPath1)"
             id="text18"><tspan
               style="font-style:italic;font-variant:normal;font-weight:normal;font-size:11px;font-family:Times;writing-mode:lr-tb;fill:#000000;fill-opacity:1;fill-rule:nonzero;stroke:none"
               x="0"
               dx="0 42.02869"
               y="0"
               id="tspan11">mx</tspan><tspan
               style="font-variant:normal;font-weight:normal;font-size:11px;font-family:Times;writing-mode:lr-tb;fill:#000000;fill-opacity:1;fill-rule:nonzero;stroke:none"
               x="48.970699"
               y="-42"
               id="tspan12">cm</tspan><tspan
               style="font-variant:normal;font-weight:normal;font-size:11px;font-family:Times;writing-mode:lr-tb;fill:#000000;fill-opacity:1;fill-rule:nonzero;stroke:none"
               x="49.970699"
               y="21"
               id="tspan13">0</tspan><tspan
               style="font-variant:normal;font-weight:normal;font-size:9px;font-family:Times;writing-mode:lr-tb;fill:#000000;fill-opacity:1;fill-rule:nonzero;stroke:none"
               x="67.970703"
               y="15"
               id="tspan14">rest</tspan><tspan
               style="font-variant:normal;font-weight:normal;font-size:9px;font-family:Times;writing-mode:lr-tb;fill:#000000;fill-opacity:1;fill-rule:nonzero;stroke:none"
               x="67.970703"
               y="24"
               id="tspan15">position</tspan><tspan
               style="font-variant:normal;font-weight:normal;font-size:9px;font-family:Symbol;writing-mode:lr-tb;fill:#000000;fill-opacity:1;fill-rule:nonzero;stroke:none"
               x="60.970699"
               y="21"
               id="tspan16"></tspan><tspan
               style="font-variant:normal;font-weight:normal;font-size:9px;font-family:Symbol;writing-mode:lr-tb;fill:#000000;fill-opacity:1;fill-rule:nonzero;stroke:none"
               x="60.970699"
               y="15"
               id="tspan17"></tspan><tspan
               style="font-variant:normal;font-weight:normal;font-size:9px;font-family:Symbol;writing-mode:lr-tb;fill:#000000;fill-opacity:1;fill-rule:nonzero;stroke:none"
               x="60.970699"
               y="27"
               id="tspan18"></tspan></text>
        </g>
      </g>
    </g>
  </g>
</svg>
