<?xml version="1.0" encoding="UTF-8" standalone="no"?>
<!-- Created with Inkscape (http://www.inkscape.org/) -->

<svg
   version="1.1"
   id="svg1"
   width="150.66667"
   height="153.33333"
   viewBox="0 0 150.66667 153.33333"
   sodipodi:docname="calc1_log2.pdf"
   xmlns:inkscape="http://www.inkscape.org/namespaces/inkscape"
   xmlns:sodipodi="http://sodipodi.sourceforge.net/DTD/sodipodi-0.dtd"
   xmlns="http://www.w3.org/2000/svg"
   xmlns:svg="http://www.w3.org/2000/svg">
  <defs
     id="defs1">
    <clipPath
       clipPathUnits="userSpaceOnUse"
       id="clipPath1">
      <path
         d="m -250.28,6.3500002 2384.0001,2.38e-5 -1e-4,-3370.000124 H -250.28004 Z"
         id="path1" />
    </clipPath>
    <clipPath
       clipPathUnits="userSpaceOnUse"
       id="clipPath2">
      <path
         d="M -6.6666667,160 H 157.33333 V -6.6666667 H -6.6666667 Z"
         id="path2" />
    </clipPath>
  </defs>
  <sodipodi:namedview
     id="namedview1"
     pagecolor="#ffffff"
     bordercolor="#000000"
     borderopacity="0.25"
     inkscape:showpageshadow="2"
     inkscape:pageopacity="0.0"
     inkscape:pagecheckerboard="0"
     inkscape:deskcolor="#d1d1d1">
    <inkscape:page
       x="0"
       y="0"
       inkscape:label="1"
       id="page1"
       width="150.66667"
       height="153.33333"
       margin="0"
       bleed="0" />
  </sodipodi:namedview>
  <g
     id="g1"
     inkscape:groupmode="layer"
     inkscape:label="1">
    <g
       id="g28">
      <g
         clip-path="url(#clipPath2)"
         id="g27">
        <path
           d="m 1505,155 h 1020 m -40,0 v 10 l 40,-10 -40,-10 v 10 h 40 m -1020,0 v 1020 m 0,-40 h -10 l 10,40 10,-40 h -10 v 40"
           style="fill:#000000;fill-opacity:1;fill-rule:nonzero;stroke:none"
           transform="matrix(0.13333333,0,0,-0.13333333,-189.33333,160)"
           id="path3" />
        <path
           d="m 1675,155 v -17 m 595,17 v -17 m -765,187 h -17 m 17,595 h -17"
           style="fill:none;stroke:#000000;stroke-width:3;stroke-linecap:butt;stroke-linejoin:miter;stroke-miterlimit:10;stroke-dasharray:none;stroke-opacity:1"
           transform="matrix(0.13333333,0,0,-0.13333333,-189.33333,160)"
           id="path4" />
        <path
           d="m 1690,325 c 0,8.281 -6.72,15 -15,15 -8.28,0 -15,-6.719 -15,-15 0,-8.281 6.72,-15 15,-15 8.28,0 15,6.719 15,15"
           style="fill:#000000;fill-opacity:1;fill-rule:nonzero;stroke:none"
           transform="matrix(0.13333333,0,0,-0.13333333,-189.33333,160)"
           id="path5" />
        <path
           d="m 2285,325 c 0,8.281 -6.72,15 -15,15 -8.28,0 -15,-6.719 -15,-15 0,-8.281 6.72,-15 15,-15 8.28,0 15,6.719 15,15"
           style="fill:#000000;fill-opacity:1;fill-rule:nonzero;stroke:none"
           transform="matrix(0.13333333,0,0,-0.13333333,-189.33333,160)"
           id="path6" />
        <path
           d="m 2285,920 c 0,8.281 -6.72,15 -15,15 -8.28,0 -15,-6.719 -15,-15 0,-8.281 6.72,-15 15,-15 8.28,0 15,6.719 15,15"
           style="fill:#000000;fill-opacity:1;fill-rule:nonzero;stroke:none"
           transform="matrix(0.13333333,0,0,-0.13333333,-189.33333,160)"
           id="path7" />
        <path
           d="m 1690,920 c 0,8.281 -6.72,15 -15,15 -8.28,0 -15,-6.719 -15,-15 0,-8.281 6.72,-15 15,-15 8.28,0 15,6.719 15,15"
           style="fill:#000000;fill-opacity:1;fill-rule:nonzero;stroke:none"
           transform="matrix(0.13333333,0,0,-0.13333333,-189.33333,160)"
           id="path8" />
        <path
           d="M 1675,155 V 920 M 2270,155 V 920 M 1505,325 h 765 m -765,595 h 765"
           style="fill:none;stroke:#000000;stroke-width:3;stroke-linecap:butt;stroke-linejoin:miter;stroke-miterlimit:10;stroke-dasharray:8.5, 17;stroke-dashoffset:0;stroke-opacity:1"
           transform="matrix(0.13333333,0,0,-0.13333333,-189.33333,160)"
           id="path9" />
        <path
           d="m 1955.5,639.5 -255,255 m 28.29,-28.285 -7.08,-7.07 -21.21,35.355 35.36,-21.215 -7.07,-7.07 -28.29,28.285 m 289,-289 255,-255 m -28.29,28.285 7.08,7.07 21.21,-35.355 -35.36,21.215 7.07,7.07 28.29,-28.285"
           style="fill:#000000;fill-opacity:1;fill-rule:nonzero;stroke:none"
           transform="matrix(0.13333333,0,0,-0.13333333,-189.33333,160)"
           id="path10" />
        <path
           d="m 1513.5,163.5 1003,1003"
           style="fill:none;stroke:#000000;stroke-width:6.1;stroke-linecap:butt;stroke-linejoin:miter;stroke-miterlimit:10;stroke-dasharray:42.5, 10.2, 6.8, 10.2;stroke-dashoffset:0;stroke-opacity:1"
           transform="matrix(0.13333333,0,0,-0.13333333,-189.33333,160)"
           id="path11" />
        <text
           xml:space="preserve"
           transform="matrix(1.3333333,-1.3333333e-8,-1.3333333e-8,1.3333333,144.37333,151.53333)"
           clip-path="url(#clipPath1)"
           id="text27"><tspan
             style="font-style:italic;font-variant:normal;font-weight:normal;font-size:10px;font-family:Times;writing-mode:lr-tb;fill:#000000;fill-opacity:1;fill-rule:nonzero;stroke:none"
             x="0"
             y="0"
             id="tspan11">x</tspan><tspan
             style="font-style:italic;font-variant:normal;font-weight:normal;font-size:10px;font-family:Times;writing-mode:lr-tb;fill:#000000;fill-opacity:1;fill-rule:nonzero;stroke:none"
             x="-107.62"
             y="-108.6"
             id="tspan12">y</tspan><tspan
             style="font-style:italic;font-variant:normal;font-weight:normal;font-size:10px;font-family:Times;writing-mode:lr-tb;fill:#000000;fill-opacity:1;fill-rule:nonzero;stroke:none"
             x="-85.280197"
             dx="0 53.650002"
             y="0.85000002"
             id="tspan13">ab</tspan><tspan
             style="font-style:italic;font-variant:normal;font-weight:normal;font-size:10px;font-family:Times;writing-mode:lr-tb;fill:#000000;fill-opacity:1;fill-rule:nonzero;stroke:none"
             x="-108.1802"
             y="-24.450001"
             id="tspan14">a</tspan><tspan
             style="font-style:italic;font-variant:normal;font-weight:normal;font-size:10px;font-family:Times;writing-mode:lr-tb;fill:#000000;fill-opacity:1;fill-rule:nonzero;stroke:none"
             x="-108.1802"
             y="-83.949997"
             id="tspan15">b</tspan><tspan
             style="font-variant:normal;font-weight:normal;font-size:10px;font-family:Symbol;writing-mode:lr-tb;fill:#000000;fill-opacity:1;fill-rule:nonzero;stroke:none"
             x="-80.230202"
             y="-17"
             id="tspan16">(</tspan><tspan
             style="font-style:italic;font-variant:normal;font-weight:normal;font-size:10px;font-family:Times;writing-mode:lr-tb;fill:#000000;fill-opacity:1;fill-rule:nonzero;stroke:none"
             x="-76.900124"
             y="-17"
             id="tspan17">a, a</tspan><tspan
             style="font-variant:normal;font-weight:normal;font-size:10px;font-family:Symbol;writing-mode:lr-tb;fill:#000000;fill-opacity:1;fill-rule:nonzero;stroke:none"
             x="-61.90012"
             y="-17"
             id="tspan18">)</tspan><tspan
             style="font-variant:normal;font-weight:normal;font-size:10px;font-family:Symbol;writing-mode:lr-tb;fill:#000000;fill-opacity:1;fill-rule:nonzero;stroke:none"
             x="-20.730221"
             y="-18.700001"
             id="tspan19">(</tspan><tspan
             style="font-style:italic;font-variant:normal;font-weight:normal;font-size:10px;font-family:Times;writing-mode:lr-tb;fill:#000000;fill-opacity:1;fill-rule:nonzero;stroke:none"
             x="-17.400141"
             y="-18.700001"
             id="tspan20">b, a</tspan><tspan
             style="font-variant:normal;font-weight:normal;font-size:10px;font-family:Symbol;writing-mode:lr-tb;fill:#000000;fill-opacity:1;fill-rule:nonzero;stroke:none"
             x="-2.40014"
             y="-18.700001"
             id="tspan21">)</tspan><tspan
             style="font-variant:normal;font-weight:normal;font-size:10px;font-family:Symbol;writing-mode:lr-tb;fill:#000000;fill-opacity:1;fill-rule:nonzero;stroke:none"
             x="-20.73024"
             y="-79.050003"
             id="tspan22">(</tspan><tspan
             style="font-style:italic;font-variant:normal;font-weight:normal;font-size:10px;font-family:Times;writing-mode:lr-tb;fill:#000000;fill-opacity:1;fill-rule:nonzero;stroke:none"
             x="-17.40016"
             y="-79.050003"
             id="tspan23">b, b</tspan><tspan
             style="font-variant:normal;font-weight:normal;font-size:10px;font-family:Symbol;writing-mode:lr-tb;fill:#000000;fill-opacity:1;fill-rule:nonzero;stroke:none"
             x="-2.4001601"
             y="-79.050003"
             id="tspan24">)</tspan><tspan
             style="font-variant:normal;font-weight:normal;font-size:10px;font-family:Symbol;writing-mode:lr-tb;fill:#000000;fill-opacity:1;fill-rule:nonzero;stroke:none"
             x="-82.780258"
             y="-89.900002"
             id="tspan25">(</tspan><tspan
             style="font-style:italic;font-variant:normal;font-weight:normal;font-size:10px;font-family:Times;writing-mode:lr-tb;fill:#000000;fill-opacity:1;fill-rule:nonzero;stroke:none"
             x="-79.45018"
             y="-89.900002"
             id="tspan26">a, b</tspan><tspan
             style="font-variant:normal;font-weight:normal;font-size:10px;font-family:Symbol;writing-mode:lr-tb;fill:#000000;fill-opacity:1;fill-rule:nonzero;stroke:none"
             x="-64.45018"
             y="-89.900002"
             id="tspan27">)</tspan></text>
      </g>
    </g>
  </g>
</svg>
