<?xml version="1.0" encoding="UTF-8" standalone="no"?>
<!-- Created with Inkscape (http://www.inkscape.org/) -->

<svg
   version="1.1"
   id="svg1"
   width="416"
   height="229.33333"
   viewBox="0 0 416 229.33333"
   sodipodi:docname="calc1_pic204a.pdf"
   xmlns:inkscape="http://www.inkscape.org/namespaces/inkscape"
   xmlns:sodipodi="http://sodipodi.sourceforge.net/DTD/sodipodi-0.dtd"
   xmlns="http://www.w3.org/2000/svg"
   xmlns:svg="http://www.w3.org/2000/svg">
  <defs
     id="defs1">
    <clipPath
       clipPathUnits="userSpaceOnUse"
       id="clipPath1">
      <path
         d="M -293.75001,161.25 H 2090.25 V -3208.7501 H -293.75001 Z"
         id="path1" />
    </clipPath>
    <clipPath
       clipPathUnits="userSpaceOnUse"
       id="clipPath2">
      <path
         d="M -247.85001,8.2500027 H 2136.1501 V -3361.7501 H -247.85001 Z"
         id="path2" />
    </clipPath>
    <clipPath
       clipPathUnits="userSpaceOnUse"
       id="clipPath3">
      <path
         d="M -309.05001,8.2500027 H 2074.95 V -3361.7501 H -309.05001 Z"
         id="path3" />
    </clipPath>
    <clipPath
       clipPathUnits="userSpaceOnUse"
       id="clipPath4">
      <path
         d="M -130.55001,8.2500027 H 2253.4501 V -3361.7501 H -130.55001 Z"
         id="path4" />
    </clipPath>
    <clipPath
       clipPathUnits="userSpaceOnUse"
       id="clipPath5">
      <path
         d="M -48.950001,157 H 2335.0501 V -3213.0001 H -48.950001 Z"
         id="path5" />
    </clipPath>
    <clipPath
       clipPathUnits="userSpaceOnUse"
       id="clipPath6">
      <path
         d="M -219.80001,42.261304 H 2164.2001 V -3327.7388 H -219.80001 Z"
         id="path6" />
    </clipPath>
    <clipPath
       clipPathUnits="userSpaceOnUse"
       id="clipPath7">
      <path
         d="M -321.80501,24.321101 H 2062.1951 V -3345.679 H -321.80501 Z"
         id="path7" />
    </clipPath>
    <clipPath
       clipPathUnits="userSpaceOnUse"
       id="clipPath8">
      <path
         d="M -6.6666667,236 H 422.66667 V -6.6666667 H -6.6666667 Z"
         id="path8" />
    </clipPath>
    <clipPath
       clipPathUnits="userSpaceOnUse"
       id="clipPath9">
      <path
         d="M 0,229.33333 H 416 V 0 H 0 Z"
         id="path9" />
    </clipPath>
  </defs>
  <sodipodi:namedview
     id="namedview1"
     pagecolor="#ffffff"
     bordercolor="#000000"
     borderopacity="0.25"
     inkscape:showpageshadow="2"
     inkscape:pageopacity="0.0"
     inkscape:pagecheckerboard="0"
     inkscape:deskcolor="#d1d1d1">
    <inkscape:page
       x="0"
       y="0"
       inkscape:label="1"
       id="page1"
       width="416"
       height="229.33333"
       margin="0"
       bleed="0" />
  </sodipodi:namedview>
  <g
     id="g1"
     inkscape:groupmode="layer"
     inkscape:label="1">
    <g
       id="g38">
      <g
         clip-path="url(#clipPath9)"
         id="g37">
        <g
           clip-path="url(#clipPath8)"
           id="g36">
          <path
             d="M 727.543,40 V 1706 H 736 l -8.5,34 -8.5,-34 h 8.457 V 40"
             style="fill:#000000;fill-opacity:1;fill-rule:nonzero;stroke:none"
             transform="matrix(0.13333333,0,0,-0.13333333,-52,233.33333)"
             id="path10" />
          <path
             d="m 727.5,209.957 h 2601 V 201.5 l 34,8.5 -34,8.5 v -8.457 h -2601"
             style="fill:#000000;fill-opacity:1;fill-rule:nonzero;stroke:none"
             transform="matrix(0.13333333,0,0,-0.13333333,-52,233.33333)"
             id="path11" />
          <text
             xml:space="preserve"
             transform="matrix(1.3333333,0,0,1.3333333,339.66667,18.333333)"
             clip-path="url(#clipPath1)"
             id="text12"><tspan
               style="font-style:italic;font-variant:normal;font-weight:normal;font-size:10.2px;font-family:Times;writing-mode:lr-tb;fill:#000000;fill-opacity:1;fill-rule:nonzero;stroke:none"
               x="0"
               y="0"
               id="tspan11">Q(t)</tspan><tspan
               style="font-variant:normal;font-weight:normal;font-size:10.2px;font-family:Times;writing-mode:lr-tb;fill:#000000;fill-opacity:1;fill-rule:nonzero;stroke:none"
               x="-107.1"
               y="153"
               id="tspan12">120</tspan></text>
          <path
             d="m 1951.5,193 v 17"
             style="fill:none;stroke:#000000;stroke-width:2.125;stroke-linecap:butt;stroke-linejoin:miter;stroke-miterlimit:10;stroke-dasharray:none;stroke-opacity:1"
             transform="matrix(0.13333333,0,0,-0.13333333,-52,233.33333)"
             id="path12" />
          <text
             xml:space="preserve"
             transform="matrix(1.3333333,0,0,1.3333333,278.46667,222.33333)"
             clip-path="url(#clipPath2)"
             id="text13"><tspan
               style="font-variant:normal;font-weight:normal;font-size:10.2px;font-family:Times;writing-mode:lr-tb;fill:#000000;fill-opacity:1;fill-rule:nonzero;stroke:none"
               x="0"
               y="0"
               id="tspan13">180</tspan></text>
          <path
             d="m 2563.5,193 v 17"
             style="fill:none;stroke:#000000;stroke-width:2.125;stroke-linecap:butt;stroke-linejoin:miter;stroke-miterlimit:10;stroke-dasharray:none;stroke-opacity:1"
             transform="matrix(0.13333333,0,0,-0.13333333,-52,233.33333)"
             id="path13" />
          <text
             xml:space="preserve"
             transform="matrix(1.3333333,0,0,1.3333333,360.06667,222.33333)"
             clip-path="url(#clipPath3)"
             id="text14"><tspan
               style="font-variant:normal;font-weight:normal;font-size:10.2px;font-family:Times;writing-mode:lr-tb;fill:#000000;fill-opacity:1;fill-rule:nonzero;stroke:none"
               x="0"
               y="0"
               id="tspan14">240</tspan></text>
          <path
             d="m 3175.5,193 v 17"
             style="fill:none;stroke:#000000;stroke-width:2.125;stroke-linecap:butt;stroke-linejoin:miter;stroke-miterlimit:10;stroke-dasharray:none;stroke-opacity:1"
             transform="matrix(0.13333333,0,0,-0.13333333,-52,233.33333)"
             id="path14" />
          <text
             xml:space="preserve"
             transform="matrix(1.3333333,0,0,1.3333333,122.06667,222.33333)"
             clip-path="url(#clipPath4)"
             id="text15"><tspan
               style="font-variant:normal;font-weight:normal;font-size:10.2px;font-family:Times;writing-mode:lr-tb;fill:#000000;fill-opacity:1;fill-rule:nonzero;stroke:none"
               x="0"
               y="0"
               id="tspan15">60</tspan></text>
          <path
             d="M 1339.5,184.5 V 210"
             style="fill:none;stroke:#000000;stroke-width:2.125;stroke-linecap:butt;stroke-linejoin:miter;stroke-miterlimit:10;stroke-dasharray:none;stroke-opacity:1"
             transform="matrix(0.13333333,0,0,-0.13333333,-52,233.33333)"
             id="path15" />
          <path
             d="m 710.5,69.75 h 17"
             style="fill:none;stroke:#000000;stroke-width:2.125;stroke-linecap:butt;stroke-linejoin:miter;stroke-miterlimit:10;stroke-dasharray:none;stroke-opacity:1"
             transform="matrix(0.13333333,0,0,-0.13333333,-52,233.33333)"
             id="path16" />
          <path
             d="m 710.5,210 h 17"
             style="fill:none;stroke:#000000;stroke-width:2.125;stroke-linecap:butt;stroke-linejoin:miter;stroke-miterlimit:10;stroke-dasharray:none;stroke-opacity:1"
             transform="matrix(0.13333333,0,0,-0.13333333,-52,233.33333)"
             id="path17" />
          <path
             d="m 710.5,350.25 h 17"
             style="fill:none;stroke:#000000;stroke-width:2.125;stroke-linecap:butt;stroke-linejoin:miter;stroke-miterlimit:10;stroke-dasharray:none;stroke-opacity:1"
             transform="matrix(0.13333333,0,0,-0.13333333,-52,233.33333)"
             id="path18" />
          <path
             d="m 710.5,490.5 h 17"
             style="fill:none;stroke:#000000;stroke-width:2.125;stroke-linecap:butt;stroke-linejoin:miter;stroke-miterlimit:10;stroke-dasharray:none;stroke-opacity:1"
             transform="matrix(0.13333333,0,0,-0.13333333,-52,233.33333)"
             id="path19" />
          <path
             d="m 710.5,630.75 h 17"
             style="fill:none;stroke:#000000;stroke-width:2.125;stroke-linecap:butt;stroke-linejoin:miter;stroke-miterlimit:10;stroke-dasharray:none;stroke-opacity:1"
             transform="matrix(0.13333333,0,0,-0.13333333,-52,233.33333)"
             id="path20" />
          <path
             d="m 710.5,771 h 17"
             style="fill:none;stroke:#000000;stroke-width:2.125;stroke-linecap:butt;stroke-linejoin:miter;stroke-miterlimit:10;stroke-dasharray:none;stroke-opacity:1"
             transform="matrix(0.13333333,0,0,-0.13333333,-52,233.33333)"
             id="path21" />
          <path
             d="m 710.5,911.25 h 17"
             style="fill:none;stroke:#000000;stroke-width:2.125;stroke-linecap:butt;stroke-linejoin:miter;stroke-miterlimit:10;stroke-dasharray:none;stroke-opacity:1"
             transform="matrix(0.13333333,0,0,-0.13333333,-52,233.33333)"
             id="path22" />
          <path
             d="m 710.5,1051.5 h 17"
             style="fill:none;stroke:#000000;stroke-width:2.125;stroke-linecap:butt;stroke-linejoin:miter;stroke-miterlimit:10;stroke-dasharray:none;stroke-opacity:1"
             transform="matrix(0.13333333,0,0,-0.13333333,-52,233.33333)"
             id="path23" />
          <path
             d="m 710.5,1191.75 h 17"
             style="fill:none;stroke:#000000;stroke-width:2.125;stroke-linecap:butt;stroke-linejoin:miter;stroke-miterlimit:10;stroke-dasharray:none;stroke-opacity:1"
             transform="matrix(0.13333333,0,0,-0.13333333,-52,233.33333)"
             id="path24" />
          <path
             d="m 710.5,1332 h 17"
             style="fill:none;stroke:#000000;stroke-width:2.125;stroke-linecap:butt;stroke-linejoin:miter;stroke-miterlimit:10;stroke-dasharray:none;stroke-opacity:1"
             transform="matrix(0.13333333,0,0,-0.13333333,-52,233.33333)"
             id="path25" />
          <path
             d="m 710.5,1472.25 h 17"
             style="fill:none;stroke:#000000;stroke-width:2.125;stroke-linecap:butt;stroke-linejoin:miter;stroke-miterlimit:10;stroke-dasharray:none;stroke-opacity:1"
             transform="matrix(0.13333333,0,0,-0.13333333,-52,233.33333)"
             id="path26" />
          <path
             d="m 710.5,1612.5 h 17"
             style="fill:none;stroke:#000000;stroke-width:2.125;stroke-linecap:butt;stroke-linejoin:miter;stroke-miterlimit:10;stroke-dasharray:none;stroke-opacity:1"
             transform="matrix(0.13333333,0,0,-0.13333333,-52,233.33333)"
             id="path27" />
          <text
             xml:space="preserve"
             transform="matrix(1.3333333,0,0,1.3333333,13.266667,24)"
             clip-path="url(#clipPath5)"
             id="text31"><tspan
               style="font-variant:normal;font-weight:normal;font-size:10.2px;font-family:Times;writing-mode:lr-tb;fill:#000000;fill-opacity:1;fill-rule:nonzero;stroke:none"
               x="0"
               y="0"
               id="tspan27">10</tspan><tspan
               style="font-variant:normal;font-weight:normal;font-size:10.2px;font-family:Times;writing-mode:lr-tb;fill:#000000;fill-opacity:1;fill-rule:nonzero;stroke:none"
               x="-10.2"
               y="70.125"
               id="tspan28">.5 10</tspan><tspan
               style="font-variant:normal;font-weight:normal;font-size:10.2px;font-family:Times;writing-mode:lr-tb;fill:#000000;fill-opacity:1;fill-rule:nonzero;stroke:none"
               x="14.45"
               y="139.39999"
               id="tspan29">0</tspan><tspan
               style="font-variant:normal;font-weight:normal;font-size:8.5px;font-family:Times;writing-mode:lr-tb;fill:#000000;fill-opacity:1;fill-rule:nonzero;stroke:none"
               x="11.05"
               y="-5.0999999"
               id="tspan30">11</tspan><tspan
               style="font-variant:normal;font-weight:normal;font-size:8.5px;font-family:Times;writing-mode:lr-tb;fill:#000000;fill-opacity:1;fill-rule:nonzero;stroke:none"
               x="11.05"
               y="65.025002"
               id="tspan31">11</tspan></text>
          <path
             d="m 2562.86,379.148 176.8,-132.597 -4.46,-5.949 32.3,-13.602 -22.1,27.199 -4.46,-5.949 -176.8,132.602"
             style="fill:#000000;fill-opacity:1;fill-rule:nonzero;stroke:none"
             transform="matrix(0.13333333,0,0,-0.13333333,-52,233.33333)"
             id="path31" />
          <path
             d="m 727.5,210 h 2213.4 l 10.2,0.004 h 40.8 l 10.2,0.004 h 10.2 l 10.2,0.004 10.2,0.004 10.2,0.007 10.2,0.012 10.2,0.016 10.2,0.023 10.2,0.043 10.2,0.078 10.2,0.141 10.2,0.289 10.2,0.637 10.2,1.613 10.2,4.824 10.2,18.578 10.2,107.946 10.2,1399.187"
             style="fill:none;stroke:#000000;stroke-width:8.075;stroke-linecap:butt;stroke-linejoin:miter;stroke-miterlimit:10;stroke-dasharray:none;stroke-opacity:1"
             transform="matrix(0.13333333,0,0,-0.13333333,-52,233.33333)"
             id="path32" />
          <path
             d="m 727.5,210 h 2346 l 20.4,0.004 h 40.8 l 20.4,0.004 20.4,0.004"
             style="fill:none;stroke:#000000;stroke-width:8.075;stroke-linecap:butt;stroke-linejoin:miter;stroke-miterlimit:10;stroke-dasharray:none;stroke-opacity:1"
             transform="matrix(0.13333333,0,0,-0.13333333,-52,233.33333)"
             id="path33" />
          <text
             xml:space="preserve"
             transform="matrix(1.3333333,0,0,1.3333333,241.06667,176.98493)"
             clip-path="url(#clipPath6)"
             id="text34"><tspan
               style="font-variant:normal;font-weight:normal;font-size:10.2px;font-family:Symbol;writing-mode:lr-tb;fill:#000000;fill-opacity:1;fill-rule:nonzero;stroke:none"
               x="0"
               y="0"
               id="tspan33">∆   = 2         ∆   = 1</tspan><tspan
               style="font-style:italic;font-variant:normal;font-weight:normal;font-size:10.2px;font-family:Times;writing-mode:lr-tb;fill:#000000;fill-opacity:1;fill-rule:nonzero;stroke:none"
               x="7.6500001"
               y="0"
               id="tspan34">t        and     t</tspan></text>
          <path
             d="m 727.5,210 h 2284.8 l 10.2,0.004 h 40.8 l 10.2,0.004 h 10.2 l 10.2,0.004 h 10.2 l 10.2,0.004 10.2,0.007 10.2,0.008 10.2,0.008 10.2,0.016 10.2,0.023 10.2,0.035"
             style="fill:none;stroke:#000000;stroke-width:8.075;stroke-linecap:butt;stroke-linejoin:miter;stroke-miterlimit:10;stroke-dasharray:none;stroke-opacity:1"
             transform="matrix(0.13333333,0,0,-0.13333333,-52,233.33333)"
             id="path34" />
          <text
             xml:space="preserve"
             transform="matrix(1.3333333,0,0,1.3333333,377.07333,200.9052)"
             clip-path="url(#clipPath7)"
             id="text36"><tspan
               style="font-variant:normal;font-weight:normal;font-size:10.2px;font-family:Symbol;writing-mode:lr-tb;fill:#000000;fill-opacity:1;fill-rule:nonzero;stroke:none"
               x="0"
               y="0"
               id="tspan35">∆   = .1</tspan><tspan
               style="font-style:italic;font-variant:normal;font-weight:normal;font-size:10.2px;font-family:Times;writing-mode:lr-tb;fill:#000000;fill-opacity:1;fill-rule:nonzero;stroke:none"
               x="7.6500001"
               y="0"
               id="tspan36">t</tspan></text>
          <path
             d="m 727.5,210 h 2225.68 l 1.02,0.004 h 47.94 l 1.02,0.004 h 1.02 1.03 1.02 1.02 1.02 1.02 1.01 1.02 1.02 1.03 1.02 1.02 1.02 1.02 1.01 1.02 1.03 1.02 l 1.02,0.004 h 1.02 1.02 1.02 1.02 1.02 1.02 1.02 1.02 1.02 1.02 l 1.02,0.004 h 1.02 1.02 1.02 1.02 1.02 1.02 1.02 1.02 l 1.02,0.004 h 1.02 1.02 1.02 1.02 1.02 l 1.02,0.003 h 1.02 1.02 1.02 1.02 l 1.02,0.004 h 1.02 1.02 1.02 l 1.02,0.004 h 1.02 1.02 1.02 l 1.02,0.004 h 1.02 1.02 l 1.02,0.004 h 1.02 l 1.02,0.004 h 1.02 1.02 l 1.02,0.004 h 1.02 l 1.02,0.004 h 1.02 l 1.02,0.004 h 1.02 l 1.02,0.004 1.02,0.004 h 1.02 l 1.02,0.003 1.02,0.004 h 1.02 l 1.02,0.004 1.02,0.004 1.02,0.004 1.02,0.004 1.02,0.004 1.02,0.004 1.02,0.004 1.02,0.004 1.02,0.003 1.02,0.004 1.02,0.008 1.02,0.004 1.02,0.008 1.02,0.004 1.02,0.008 1.02,0.007 1.02,0.004 1.02,0.008 1.02,0.008 1.02,0.012 1.02,0.008 1.02,0.011 1.02,0.008 1.02,0.012 1.02,0.011 1.02,0.012 1.02,0.016 1.02,0.012 1.02,0.015 1.02,0.016 1.02,0.015 1.02,0.02 1.02,0.019 1.02,0.024 1.02,0.019 1.02,0.024 1.02,0.027 1.02,0.028 1.02,0.031 1.02,0.031 1.02,0.035 1.02,0.035 1.02,0.043 1.02,0.043 1.02,0.047 1.02,0.047 1.02,0.055 1.02,0.062 1.02,0.063 1.02,0.07 1.02,0.074 1.02,0.082 1.02,0.09 1.02,0.098 1.02,0.109 1.02,0.117 1.02,0.125 1.03,0.141 1.01,0.156 1.02,0.168 1.02,0.188 1.02,0.203 1.02,0.226 1.02,0.254 1.03,0.278 1.02,0.308 1.01,0.344 1.02,0.379 1.02,0.426 1.02,0.476 1.02,0.535 1.03,0.598 1.02,0.672 1.02,0.762 1.01,0.855 1.02,0.973 1.02,1.101 1.02,1.254 1.02,1.434 1.03,1.637 1.02,1.882 1.02,2.164 1.02,2.504 1.01,2.899 1.02,3.367 1.02,3.934 1.03,4.605 1.02,5.418 1.02,6.395 1.02,7.585 1.02,9.036 1.01,10.82"
             style="fill:none;stroke:#000000;stroke-width:8.075;stroke-linecap:butt;stroke-linejoin:miter;stroke-miterlimit:10;stroke-dasharray:none;stroke-opacity:1"
             transform="matrix(0.13333333,0,0,-0.13333333,-52,233.33333)"
             id="path36" />
        </g>
      </g>
    </g>
  </g>
</svg>
